<svg xmlns="http://www.w3.org/2000/svg" xmlns:xlink="http://www.w3.org/1999/xlink" width="500" zoomAndPan="magnify" viewBox="0 0 375 374.999991" height="500" preserveAspectRatio="xMidYMid meet" version="1.2"><defs><clipPath id="b0d1df4070"><path d="M 26.71875 1 L 225 1 L 225 90 L 26.71875 90 Z M 26.71875 1 "/></clipPath><clipPath id="1015dce7c3"><path d="M 26.71875 84 L 225 84 L 225 165 L 26.71875 165 Z M 26.71875 84 "/></clipPath><clipPath id="bef98ed056"><path d="M 26.71875 159 L 129 159 L 129 240 L 26.71875 240 Z M 26.71875 159 "/></clipPath><clipPath id="f2d4d91bc3"><path d="M 26.71875 234 L 129 234 L 129 315 L 26.71875 315 Z M 26.71875 234 "/></clipPath><clipPath id="bf6d675e85"><path d="M 151 293 L 348.46875 293 L 348.46875 374 L 151 374 Z M 151 293 "/></clipPath><clipPath id="833a1b9371"><path d="M 151 218 L 348.46875 218 L 348.46875 300 L 151 300 Z M 151 218 "/></clipPath><clipPath id="03daba62e0"><path d="M 151 135 L 348.46875 135 L 348.46875 225 L 151 225 Z M 151 135 "/></clipPath></defs><g id="cf8ce4a62f"><g clip-rule="nonzero" clip-path="url(#b0d1df4070)"><path style=" stroke:none;fill-rule:nonzero;fill:#ead038;fill-opacity:1;" d="M 125.652344 89.765625 C 183.90625 89.765625 224.449219 66.398438 224.449219 45.492188 C 224.449219 24.457031 183.90625 1.085938 125.652344 1.085938 C 67.464844 1.085938 26.917969 24.457031 26.917969 45.425781 C 26.917969 66.398438 67.464844 89.765625 125.652344 89.765625 Z M 125.652344 89.765625 "/></g><g clip-rule="nonzero" clip-path="url(#1015dce7c3)"><path style=" stroke:none;fill-rule:nonzero;fill:#ead038;fill-opacity:1;" d="M 224.449219 84.375 C 202.679688 101.285156 166.929688 112.136719 125.652344 112.136719 C 84.441406 112.136719 48.6875 101.351562 26.917969 84.441406 L 26.917969 120.257812 C 26.917969 141.296875 67.464844 164.597656 125.652344 164.597656 C 127.914062 164.597656 129.976562 164.464844 132.109375 164.398438 C 142.695312 139.164062 178.3125 119.925781 224.449219 114.730469 Z M 224.449219 84.375 "/></g><g clip-rule="nonzero" clip-path="url(#bef98ed056)"><path style=" stroke:none;fill-rule:nonzero;fill:#ead038;fill-opacity:1;" d="M 26.917969 159.273438 L 26.917969 195.15625 C 26.917969 216.128906 67.464844 239.429688 125.652344 239.429688 C 126.78125 239.429688 127.78125 239.296875 128.847656 239.296875 L 128.847656 186.96875 C 127.78125 186.96875 126.78125 187.035156 125.652344 187.035156 C 84.441406 186.96875 48.6875 176.183594 26.917969 159.273438 Z M 26.917969 159.273438 "/></g><g clip-rule="nonzero" clip-path="url(#f2d4d91bc3)"><path style=" stroke:none;fill-rule:nonzero;fill:#ead038;fill-opacity:1;" d="M 26.917969 234.035156 L 26.917969 269.988281 C 26.917969 290.960938 67.464844 314.195312 125.652344 314.195312 C 126.78125 314.195312 127.78125 314.128906 128.847656 314.128906 L 128.847656 261.664062 C 127.78125 261.664062 126.78125 261.800781 125.652344 261.800781 C 84.441406 261.800781 48.6875 250.878906 26.917969 234.035156 Z M 26.917969 234.035156 "/></g><g clip-rule="nonzero" clip-path="url(#bf6d675e85)"><path style=" stroke:none;fill-rule:nonzero;fill:#ead038;fill-opacity:1;" d="M 151.214844 293.753906 L 151.214844 329.640625 C 151.214844 350.613281 191.761719 373.914062 250.015625 373.914062 C 308.203125 373.914062 348.746094 350.542969 348.746094 329.640625 L 348.746094 293.753906 C 326.976562 310.597656 291.226562 321.519531 250.015625 321.519531 C 208.738281 321.519531 172.988281 310.597656 151.214844 293.753906 Z M 151.214844 293.753906 "/></g><g clip-rule="nonzero" clip-path="url(#833a1b9371)"><path style=" stroke:none;fill-rule:nonzero;fill:#ead038;fill-opacity:1;" d="M 151.214844 218.925781 L 151.214844 254.808594 C 151.214844 275.78125 191.761719 299.148438 250.015625 299.148438 C 308.203125 299.148438 348.746094 275.714844 348.746094 254.808594 L 348.746094 218.925781 C 326.976562 235.835938 291.226562 246.6875 250.015625 246.6875 C 208.738281 246.621094 172.988281 235.835938 151.214844 218.925781 Z M 151.214844 218.925781 "/></g><g clip-rule="nonzero" clip-path="url(#03daba62e0)"><path style=" stroke:none;fill-rule:nonzero;fill:#ead038;fill-opacity:1;" d="M 151.214844 179.976562 C 151.214844 200.949219 191.761719 224.25 250.015625 224.25 C 308.203125 224.25 348.746094 200.882812 348.746094 179.976562 C 348.746094 158.9375 308.203125 135.636719 250.015625 135.636719 C 191.761719 135.570312 151.214844 158.9375 151.214844 179.976562 Z M 151.214844 179.976562 "/></g></g></svg>