<svg xmlns="http://www.w3.org/2000/svg" xmlns:xlink="http://www.w3.org/1999/xlink" width="500" zoomAndPan="magnify" viewBox="0 0 375 374.999991" height="500" preserveAspectRatio="xMidYMid meet" version="1.2"><g id="3644fb7a81"><path style=" stroke:none;fill-rule:nonzero;fill:#be84f8;fill-opacity:1;" d="M 237.539062 214.445312 C 231.816406 189.28125 214.726562 168.824219 192.1875 158.316406 C 174.472656 171.996094 152.363281 180.03125 128.496094 180.03125 C 104.585938 180.03125 82.476562 171.957031 64.761719 158.394531 C 39.792969 170.117188 21.488281 194.105469 17.960938 222.992188 L 9.886719 290.058594 C 8.90625 298.796875 14.511719 306.949219 23.054688 308.832031 C 56.292969 315.925781 91.6875 319.648438 128.453125 319.648438 C 136.214844 319.648438 143.976562 319.453125 151.660156 319.179688 L 157.265625 304.128906 C 160.910156 294.289062 166.710938 285.15625 174.195312 277.789062 Z M 237.539062 214.445312 "/><path style=" stroke:none;fill-rule:nonzero;fill:#be84f8;fill-opacity:1;" d="M 128.496094 150.519531 C 170.042969 150.519531 203.710938 116.847656 203.710938 75.300781 C 203.710938 33.792969 170.003906 0.0820312 128.496094 0.0820312 C 86.984375 0.0820312 53.316406 33.753906 53.316406 75.300781 C 53.277344 116.808594 86.945312 150.519531 128.496094 150.519531 Z M 128.496094 150.519531 "/><path style=" stroke:none;fill-rule:nonzero;fill:#be84f8;fill-opacity:1;" d="M 184.9375 314.359375 L 168.316406 359.160156 C 165.378906 367.039062 173.058594 374.71875 180.976562 371.820312 L 225.78125 355.199219 C 229.109375 353.945312 232.207031 352.222656 235.148438 350.222656 L 189.875 304.953125 C 187.875 307.890625 186.152344 310.988281 184.9375 314.359375 Z M 184.9375 314.359375 "/><path style=" stroke:none;fill-rule:nonzero;fill:#be84f8;fill-opacity:1;" d="M 360.773438 207.195312 L 332.902344 179.328125 C 327.769531 174.191406 319.417969 174.191406 314.285156 179.328125 L 210.140625 283.511719 L 256.625 329.996094 L 360.773438 225.851562 C 365.90625 220.679688 365.90625 212.371094 360.773438 207.195312 Z M 360.773438 207.195312 "/></g></svg>