<svg xmlns="http://www.w3.org/2000/svg" xmlns:xlink="http://www.w3.org/1999/xlink" width="500" zoomAndPan="magnify" viewBox="0 0 375 374.999991" height="500" preserveAspectRatio="xMidYMid meet" version="1.2"><defs><clipPath id="3e96c2d296"><path d="M 22.03125 0 L 352.78125 0 L 352.78125 375 L 22.03125 375 Z M 22.03125 0 "/></clipPath></defs><g id="14e1bb3e79"><g clip-rule="nonzero" clip-path="url(#3e96c2d296)"><path style=" stroke:none;fill-rule:nonzero;fill:#70a4ec;fill-opacity:1;" d="M 315.855469 353.175781 L 315.855469 29.964844 L 325.1875 29.964844 L 325.1875 0 L 49.132812 0 L 49.132812 29.964844 L 58.464844 29.964844 L 58.464844 353.664062 L 22.609375 353.664062 L 22.609375 374.789062 L 154.742188 374.789062 L 154.742188 266.722656 L 220.070312 266.722656 L 220.070312 374.789062 L 352.203125 374.789062 L 352.203125 353.664062 L 315.855469 353.664062 Z M 129.691406 235.285156 L 94.816406 235.285156 L 94.816406 200.410156 L 129.691406 200.410156 Z M 129.691406 160.132812 L 94.816406 160.132812 L 94.816406 125.257812 L 129.691406 125.257812 Z M 129.691406 84.976562 L 94.816406 84.976562 L 94.816406 49.613281 L 129.691406 49.613281 Z M 204.84375 235.285156 L 169.96875 235.285156 L 169.96875 200.410156 L 204.84375 200.410156 C 204.84375 200.410156 204.84375 235.285156 204.84375 235.285156 Z M 204.84375 160.132812 L 169.96875 160.132812 L 169.96875 125.257812 L 204.84375 125.257812 C 204.84375 125.257812 204.84375 160.132812 204.84375 160.132812 Z M 204.84375 84.976562 L 169.96875 84.976562 L 169.96875 49.613281 L 204.84375 49.613281 C 204.84375 49.613281 204.84375 84.976562 204.84375 84.976562 Z M 279.996094 235.285156 L 244.632812 235.285156 L 244.632812 200.410156 L 279.996094 200.410156 Z M 279.996094 160.132812 L 244.632812 160.132812 L 244.632812 125.257812 L 279.996094 125.257812 Z M 279.996094 84.976562 L 244.632812 84.976562 L 244.632812 49.613281 L 279.996094 49.613281 Z M 279.996094 84.976562 "/></g></g></svg>