  <svg
    xmlns="http://www.w3.org/2000/svg"
    className="h-6 w-6"
    fill="none"
    viewBox="0 0 24 24"
    stroke="currentColor"
    strokeWidth={2}
  >
    <path
      strokeLinecap="round"
      strokeLinejoin="round"
      d="M9 12l2 2 4-4m5.618-4.016A11.955 11.955 0 0112 2.944a11.955 11.955 0 01-8.618 3.04A12.007 12.007 0 002.944 12c.044 1.055.225 2.1.536 3.102M12 21c-1.353 0-2.658-.33-3.818-.944M12 21c1.353 0 2.658-.33 3.818-.944m-7.636 0c.937-2.915 2.378-5.6 4.309-7.795M12 21a9 9 0 009-9c0-1.353-.33-2.658-.944-3.818m-7.636 0c2.915 0 5.6.937 7.795 2.378M12 21a9 9 0 01-9-9c0-1.353.33-2.658.944-3.818"
    />
  </svg>