  <svg
    xmlns="http://www.w3.org/2000/svg"
    className="h-6 w-6"
    fill="none"
    viewBox="0 0 24 24"
    stroke="currentColor"
    strokeWidth={2}
  >
    <path
      strokeLinecap="round"
      strokeLinejoin="round"
      d="M11.049 2.927c.3-.921 1.603-.921 1.902 0l1.846 5.671a1 1 0 00.95.69h5.969c.969 0 1.371 1.24.588 1.81l-4.826 3.522a1 1 0 00-.364 1.118l1.846 5.671c.3.921-.755 1.688-1.54 1.118l-4.826-3.522a1 1 0 00-1.175 0l-4.826 3.522c-.784.57-1.838-.197-1.539-1.118l1.846-5.671a1 1 0 00-.364-1.118L2.28 11.1c-.783-.57-.38-1.81.588-1.81h5.969a1 1 0 00.95-.69l1.846-5.671z"
    />
  </svg>