<?xml version="1.0" encoding="UTF-8"?> <svg xmlns="http://www.w3.org/2000/svg" width="214" height="33" viewBox="0 0 214 33" fill="none"><path d="M41 16H24.5L8 0H24.5L41 16Z" fill="url(#paint0_linear_1769_1205)"></path><path d="M24.7256 16.4818L16.4822 24.7251L24.7256 32.9685L32.969 24.7251L24.7256 16.4818Z" fill="white"></path><path d="M8.24339 0.00616455L0 8.24956L8.24339 16.4929L16.4868 8.24956L8.24339 0.00616455Z" fill="white"></path><path d="M41.2075 0L32.9641 8.24339L41.2075 16.4868L49.4509 8.24339L41.2075 0Z" fill="white"></path><path d="M58 7.99998H78V12.2524H70.3659V33H65.6404V12.2524H58.0063V7.99998H58Z" fill="white"></path><path d="M85.1767 15.0017C86.2691 14.355 87.5456 14.0253 89 14V18.4314C87.0502 18.3173 85.4942 18.7674 84.332 19.7881C83.1697 20.8088 82.5854 22.1845 82.5854 23.9216V33H78V14.1712H82.5854V17.7975C83.2206 16.5802 84.0843 15.6483 85.1767 15.0017Z" fill="white"></path><path d="M102.551 32.793V30.5285C101.898 31.344 101.063 31.9587 100.041 32.3727C99.0177 32.793 97.8442 33 96.5201 33C95.196 33 94.0727 32.7491 93.0875 32.2535C92.1023 31.7517 91.3429 31.0617 90.8033 30.1835C90.2699 29.2991 90 28.3143 90 27.2228C90 25.479 90.615 24.1178 91.845 23.133C93.075 22.1482 94.8195 21.6401 97.0723 21.6213H102.507V21.132C102.507 20.0406 102.149 19.1938 101.427 18.5916C100.706 17.9894 99.6641 17.6883 98.2898 17.6883C96.5264 17.6883 94.6814 18.2717 92.7486 19.4321L91.1107 16.2958C92.5729 15.4803 93.9033 14.897 95.1019 14.5394C96.3005 14.1819 97.6999 14 99.3001 14C101.716 14 103.592 14.5833 104.923 15.7438C106.259 16.9042 106.937 18.5289 106.962 20.6177L107 32.8055H102.538L102.551 32.793ZM100.944 28.5965C101.873 27.9818 102.394 27.2228 102.513 26.3133V24.6448H97.8129C96.608 24.6448 95.7169 24.8267 95.1458 25.1842C94.5748 25.5417 94.2924 26.1314 94.2924 26.9406C94.2924 27.7497 94.5873 28.3582 95.1834 28.8224C95.7733 29.2865 96.5828 29.5186 97.6057 29.5186C98.9047 29.5186 100.022 29.2113 100.951 28.5965H100.944Z" fill="white"></path><path d="M127.065 15.952C128.355 17.2512 129 19.0193 129 21.2438V32.9936H124.215V22.581C124.215 21.2692 123.827 20.2298 123.044 19.4693C122.267 18.7088 121.208 18.3285 119.865 18.3285C118.279 18.3539 117.035 18.8672 116.121 19.8749C115.206 20.8826 114.752 22.1754 114.752 23.7472V33H110V14.1774H114.752V17.6948C116.088 15.2802 118.431 14.0507 121.767 14C124.005 14 125.775 14.6528 127.065 15.952Z" fill="white"></path><path d="M141.327 17.9944C140.364 17.6934 139.482 17.5429 138.669 17.5429C137.906 17.5429 137.299 17.6746 136.849 17.9442C136.398 18.2138 136.173 18.6214 136.173 19.1795C136.173 19.7376 136.455 20.2079 137.024 20.5214C137.593 20.835 138.487 21.1673 139.714 21.5122C141.008 21.9072 142.072 22.296 142.91 22.6785C143.742 23.061 144.467 23.6317 145.08 24.3841C145.693 25.1366 146 26.1274 146 27.3627C146 29.1749 145.306 30.567 143.917 31.5389C142.528 32.5109 140.783 33 138.675 33C137.243 33 135.842 32.7743 134.472 32.3228C133.108 31.8713 131.951 31.2254 131 30.3914L132.564 27.2247C133.396 27.9459 134.39 28.5102 135.548 28.9115C136.705 29.3191 137.806 29.5198 138.844 29.5198C139.676 29.5198 140.345 29.3756 140.839 29.0871C141.34 28.7987 141.584 28.3597 141.584 27.7828C141.584 27.1307 141.296 26.6478 140.714 26.3218C140.133 25.9957 139.201 25.6383 137.899 25.2432C136.648 24.8733 135.629 24.5096 134.841 24.1459C134.053 23.7884 133.371 23.2429 132.795 22.5092C132.214 21.7756 131.926 20.8224 131.926 19.6373C131.926 17.8062 132.589 16.4079 133.921 15.4422C135.254 14.4765 136.924 14 138.938 14C140.164 14 141.371 14.1756 142.566 14.5204C143.761 14.8716 144.818 15.3544 145.744 15.9815L144.111 19.2548C143.21 18.7218 142.278 18.3016 141.315 18.0006L141.327 17.9944Z" fill="white"></path><path d="M155.971 10.6626C155.501 11.0722 155.265 11.6835 155.265 12.5029V14.4863H160.13V17.9133H155.265V33H150.544V17.9133H148V14.4863H150.544V12.6459C150.544 11.2283 150.858 10.0188 151.485 9.01732C152.113 8.01588 152.957 7.26805 154.01 6.76082C155.062 6.25359 156.207 5.99998 157.443 5.99998C158.679 5.99998 159.836 6.27961 161 6.83235L160.163 10.6235C159.195 10.2399 158.397 10.0448 157.77 10.0448C157.044 10.0448 156.442 10.2464 155.971 10.6561V10.6626Z" fill="white"></path><path d="M176.806 16.5606C178.271 18.2593 179 20.6437 179 23.7202C179 24.3242 178.988 24.7771 178.963 25.0791H165.523C165.817 26.4066 166.424 27.451 167.343 28.2059C168.263 28.9609 169.39 29.3384 170.726 29.3384C171.658 29.3384 172.546 29.1559 173.398 28.7973C174.25 28.4387 174.992 27.9165 175.629 27.2434L178.013 29.7914C177.106 30.8169 176.003 31.6096 174.698 32.1632C173.392 32.7232 171.946 33 170.359 33C168.502 33 166.859 32.6036 165.443 31.8109C164.028 31.0182 162.931 29.9109 162.158 28.4765C161.386 27.042 161 25.4 161 23.5377C161 21.6755 161.392 20.0208 162.177 18.5801C162.961 17.1394 164.052 16.0132 165.462 15.2079C166.865 14.4026 168.465 14 170.26 14C173.165 14 175.347 14.8493 176.806 16.548V16.5606ZM174.949 22.0467C174.906 20.6752 174.459 19.5804 173.625 18.7626C172.785 17.951 171.676 17.542 170.291 17.542C168.998 17.542 167.913 17.9447 167.043 18.75C166.173 19.5553 165.633 20.65 165.425 22.053H174.949V22.0467Z" fill="white"></path><path d="M189.177 15.0017C190.269 14.355 191.546 14.0253 193 14V18.4314C191.05 18.3173 189.494 18.7674 188.332 19.7881C187.17 20.8088 186.585 22.1845 186.585 23.9216V33H182V14.1712H186.585V17.7975C187.221 16.5802 188.084 15.6483 189.177 15.0017Z" fill="white"></path><path d="M209.228 15.1891C210.73 15.9818 211.898 17.0953 212.742 18.5235C213.578 19.9579 214 21.6 214 23.4622C214 25.3245 213.578 27.0106 212.742 28.4576C211.905 29.8983 210.73 31.0182 209.228 31.8109C207.727 32.6036 205.996 33 204.035 33C202.074 33 200.298 32.6036 198.784 31.8109C197.271 31.0182 196.095 29.9046 195.258 28.4576C194.422 27.0169 194 25.3497 194 23.4622C194 21.5748 194.422 19.9516 195.258 18.5235C196.095 17.0891 197.271 15.9818 198.784 15.1891C200.298 14.3963 202.049 14 204.035 14C206.022 14 207.727 14.3963 209.228 15.1891ZM200.132 19.4483C199.142 20.499 198.644 21.8579 198.644 23.5314C198.644 25.205 199.142 26.5702 200.132 27.6146C201.122 28.6652 202.425 29.1874 204.035 29.1874C205.645 29.1874 206.871 28.6652 207.868 27.6146C208.858 26.5639 209.356 25.205 209.356 23.5314C209.356 21.8579 208.858 20.4927 207.868 19.4483C206.878 18.3977 205.6 17.8755 204.035 17.8755C202.47 17.8755 201.129 18.3977 200.132 19.4483Z" fill="white"></path><defs><linearGradient id="paint0_linear_1769_1205" x1="4.23673" y1="-12.1846" x2="65.0309" y2="52.2396" gradientUnits="userSpaceOnUse"><stop stop-color="#ABFEF4"></stop><stop offset="0.45" stop-color="#4D4DFF"></stop><stop offset="1" stop-color="#160F29"></stop></linearGradient></defs></svg> 